<svg width="212" height="212" viewBox="0 0 212 212" fill="none" xmlns="http://www.w3.org/2000/svg">
<path d="M201.27 137.038C148.532 121.446 138.425 140.548 98.587 183.204C87.7944 171.003 39.0654 118.78 39.0654 118.78C21.3056 97.5552 51.5161 92.6151 71.2991 98.4344C71.2991 98.4344 172.633 128.697 201.27 137.038Z" fill="#000000"/>
<path d="M109.493 51.5345C124.82 35.0235 150.627 34.0585 167.14 49.3833C183.65 64.7095 183.237 89.658 177.144 98.5734C162.408 120.135 162.116 125.338 201.274 137.038C155.952 123.65 67.8216 97.458 67.8216 97.458C32.684 89.5354 9.3918 69.4081 39.4006 43.6158C48.9065 35.4452 72.3755 35.0224 87.7015 51.5345L98.5973 63.2869L109.493 51.5345Z" fill="#000000"/>
</svg>
